<svg width="10" height="16" viewBox="0 0 10 16" fill="none" xmlns="http://www.w3.org/2000/svg">
<path id="Path" d="M5.1487 14.864C5.17909 14.858 5.20766 14.8474 5.23648 14.8375C5.25194 14.832 5.26819 14.8294 5.28339 14.8229C5.31535 14.8094 5.34496 14.7923 5.37484 14.7743C5.38532 14.7684 5.39685 14.7637 5.40707 14.7572C5.44611 14.731 5.4828 14.7013 5.51608 14.6683L8.78893 11.4234C9.07036 11.1444 9.07036 10.6923 8.78893 10.413C8.50776 10.134 8.05155 10.134 7.76986 10.413L5.72649 12.4387L5.72649 1.8662C5.72649 1.47155 5.40392 1.15173 5.00589 1.15173C4.60785 1.15173 4.28528 1.47155 4.28528 1.8662L4.28528 12.4387L2.24165 10.4125C1.96048 10.1335 1.50427 10.1335 1.22258 10.4125C1.08187 10.552 1.01138 10.7346 1.01138 10.9175C1.01138 11.1004 1.08187 11.2831 1.22258 11.4226L4.49596 14.6683C4.52924 14.7013 4.56593 14.731 4.60497 14.7572C4.61519 14.7637 4.62672 14.7684 4.6372 14.7743C4.66681 14.792 4.69668 14.8094 4.72865 14.8229C4.74385 14.8292 4.7601 14.832 4.77556 14.8375C4.80438 14.8471 4.83294 14.8577 4.86334 14.864C4.90998 14.8731 4.95741 14.8783 5.00589 14.8783C5.05436 14.8783 5.10206 14.8731 5.1487 14.864Z" fill="#006FE8" stroke="#006FE8" stroke-width="0.5"/>
</svg>
