<svg width="17" height="11" viewBox="0 0 17 11" fill="none" xmlns="http://www.w3.org/2000/svg">
<path d="M16.3925 5.42713C16.3854 5.39219 16.3728 5.35936 16.3612 5.32623C16.3547 5.30845 16.3516 5.28978 16.344 5.27231C16.328 5.23556 16.3077 5.20152 16.2865 5.16718C16.2794 5.15513 16.2739 5.14188 16.2662 5.13013C16.2352 5.08525 16.2002 5.04308 16.1612 5.00483L12.3245 1.24263C11.9946 0.919123 11.4601 0.919123 11.1298 1.24263C10.7999 1.56584 10.7999 2.09025 11.1298 2.41406L13.5249 4.76295H1.02444C0.55783 4.76295 0.179688 5.13375 0.179688 5.5913C0.179688 6.04884 0.55783 6.41964 1.02444 6.41964H13.5249L11.1292 8.76883C10.7993 9.09204 10.7993 9.61646 11.1292 9.94026C11.2942 10.102 11.5101 10.183 11.7264 10.183C11.9426 10.183 12.1586 10.102 12.3235 9.94026L16.1612 6.17746C16.2002 6.13921 16.2352 6.09704 16.2662 6.05216C16.2739 6.04041 16.2794 6.02716 16.2865 6.01511C16.3074 5.98107 16.328 5.94673 16.344 5.90998C16.3513 5.89251 16.3547 5.87384 16.3612 5.85607C16.3725 5.82293 16.3851 5.7901 16.3925 5.75516C16.4032 5.70154 16.4094 5.64702 16.4094 5.5913C16.4094 5.53557 16.4032 5.48075 16.3925 5.42713Z" fill="#ffffff" stroke="white" stroke-width="0.3"/>
</svg>
