<svg width="224" height="39" viewBox="0 0 224 39" fill="none" xmlns="http://www.w3.org/2000/svg">
<path fill-rule="evenodd" clip-rule="evenodd" d="M74.4087 22.9851C74.4087 20.4455 73.838 18.4623 72.718 17.0355C71.491 15.4554 69.7182 14.6885 67.3962 14.7064C65.281 14.7064 63.6296 15.3983 62.4275 16.8465C61.172 18.2661 60.5728 20.0139 60.5728 22.1148C60.5728 24.4618 61.2291 26.2916 62.5381 27.6292C63.7651 28.9097 65.4308 29.566 67.5317 29.566C69.2406 29.6188 70.9099 29.0454 72.2257 27.9537C73.2028 27.0793 73.8886 25.9267 74.1911 24.6508H71.0843C70.8043 25.3132 70.3745 25.9017 69.8288 26.3701C69.1469 26.833 68.3337 27.0632 67.5103 27.0264C66.5346 27.0834 65.5841 26.7029 64.9172 25.9884C64.3108 25.3071 63.9577 24.2941 63.8471 22.9851H74.4087ZM63.9042 20.6452C64.0141 19.7006 64.4141 18.8134 65.0492 18.1056V18.102C65.7037 17.4889 66.5834 17.175 67.4782 17.2353C69.6612 17.2353 70.8917 18.3517 71.1628 20.6452H63.9042Z" fill="white"/>
<path d="M89.5286 20.4776V29.1808H86.4183V20.7487C86.4183 18.4267 85.3482 17.2817 83.2081 17.2817C82.4531 17.2773 81.7272 17.5723 81.1893 18.1021C80.5015 18.7918 80.0979 19.7148 80.0586 20.6881V29.1772H76.9482V15.0738H80.0586V16.711C80.5628 16.0841 81.1952 15.5721 81.9133 15.2093C82.6343 14.8557 83.4289 14.6785 84.2318 14.6921C87.7452 14.6886 89.5286 16.6004 89.5286 20.4776Z" fill="white"/>
<path fill-rule="evenodd" clip-rule="evenodd" d="M54.0845 21.0874L59.6667 29.1843H55.5898L50.1396 21.2408H46.7261V29.1807H43.5159V9.69482H52.2155C54.2094 9.69482 55.7931 10.1336 56.938 11.0324C58.1401 12.0169 58.7678 13.4365 58.7678 15.2913V15.6479C58.7678 17.5063 58.1401 18.9259 56.938 19.9068C56.0998 20.5314 55.119 20.9372 54.0845 21.0874ZM51.7768 12.4235H46.7261V18.5086H51.7768C53.0216 18.5086 53.974 18.2339 54.6303 17.7167C55.2404 17.1312 55.5681 16.3108 55.5291 15.466C55.5681 14.6213 55.2404 13.8008 54.6303 13.2153C53.9882 12.6981 53.0323 12.4235 51.7768 12.4235Z" fill="white"/>
<path d="M5.21834 8.02548L8.02548 6.41325L8.40357 7.06242L18.7511 1.09503L17.9949 0.659873L17.2352 0.21758L16.8571 0L0 9.73758V10.1727L4.84025 7.37274L5.21834 8.02548Z" fill="white"/>
<path d="M5.21834 14.1568L13.3294 9.46993L13.7075 10.1298L24.055 4.15885L23.2989 3.71655L22.5391 3.2814L22.161 3.06738L0 15.8618V16.2969L4.84025 13.4969L5.21834 14.1568Z" fill="white"/>
<path d="M5.21834 17.221L15.9796 11.0075L16.3613 11.6602L26.7052 5.68214L25.949 5.25411L25.1929 4.81182L24.8112 4.59424L0 18.9188V19.3611L4.84025 16.5647L5.21834 17.221Z" fill="white"/>
<path d="M5.21834 20.2815L18.7083 12.495L19.0899 13.1477L29.359 7.21954L28.6028 6.77725L27.8431 6.34209L27.465 6.12451L0 21.9864V22.4216L4.84025 19.6216L5.21834 20.2815Z" fill="white"/>
<path d="M5.21834 23.3379L21.362 14.0212L21.7401 14.681L32.0092 8.74576L31.253 8.31417L30.4968 7.87188L30.1152 7.6543L0 25.0428V25.478L4.84025 22.6851L5.21834 23.3379Z" fill="white"/>
<path d="M33.147 9.40572L32.7689 9.18457L0 28.1104V28.5456L4.84025 25.7527L5.21834 26.4055L21.362 17.0888L21.7401 17.7415L33.7141 10.8325V9.95502V9.73744L33.147 9.40572Z" fill="white"/>
<path d="M2.07591 30.4039L4.79031 28.8381L5.1684 29.4908L21.2836 20.1884L21.6616 20.8483L33.7141 13.8893V13.0118V12.1344V11.6992L1.70496 30.1864L2.07591 30.4039Z" fill="white"/>
<path d="M21.2835 23.2563L21.6616 23.9161L33.7141 16.9572V16.0797V15.2022V14.7671L4.3551 31.7169L4.73676 31.9345L7.49039 30.3401L7.87205 31" fill="white"/>
<path d="M7.38705 33.4679L10.1443 31.87L10.5223 32.5298L21.2836 26.3128L21.6617 26.9726L33.7142 20.0136V19.1362V18.2659V17.8271L7.00183 33.2432L7.38705 33.4679Z" fill="white"/>
<path d="M10.0371 34.9981L12.7943 33.4073L13.176 34.06L21.2835 29.3803L21.6616 30.033L33.7141 23.074V22.2037V21.3263V20.8911L9.65906 34.7805L10.0371 34.9981Z" fill="white"/>
<path d="M12.3129 36.311L12.691 36.5286L15.4553 34.9342L15.8262 35.5941L21.2836 32.4374L21.6617 33.0973L33.7141 26.1383V25.2609V24.3834V23.9482L12.3129 36.311Z" fill="white"/>
<path d="M15.3411 38.0658L18.0983 36.4643L18.4764 37.1242L21.2835 35.4977L21.6616 36.1575L33.7141 29.2057V28.3282V27.4508V27.0156L14.963 37.8482L15.3411 38.0658Z" fill="white"/>
<path d="M21.4048 2.62531L20.6451 2.19015L19.8889 1.75499L19.5108 1.53027L0 12.7945V13.2296L4.84025 10.4403L5.21834 11.0895L10.6757 7.93995L11.0645 8.59983L21.4048 2.62531Z" fill="white"/>
<path d="M109.25 11.1252C110.704 12.247 111.643 13.909 111.854 15.7336H109.714C109.492 14.4169 108.749 13.2453 107.652 12.4842C106.509 11.7359 105.161 11.3619 103.796 11.4141C101.544 11.4141 99.8084 12.2 98.5885 13.7718C97.4507 15.2378 96.8836 17.1603 96.8836 19.5751C96.8836 21.9899 97.4257 23.9124 98.5636 25.3214C99.7549 26.8123 101.463 27.5721 103.739 27.5721C106.797 27.7162 109.478 25.5485 109.978 22.5285H112.118C111.683 24.7792 110.691 26.5412 109.082 27.7896C107.552 28.9709 105.664 29.5927 103.732 29.5517C100.725 29.5517 98.4209 28.5458 96.8194 26.5698C95.3569 24.7863 94.6507 22.4465 94.6507 19.5751C94.6507 16.7038 95.3855 14.3425 96.8764 12.4984C98.5029 10.4368 100.832 9.43449 103.814 9.43449C105.972 9.41665 107.788 9.98735 109.25 11.1252Z" fill="#9195A0"/>
<path d="M116.505 9.4165V17.442C117.373 15.7637 119.117 14.7227 121.006 14.7561C122.633 14.7561 123.906 15.2198 124.773 16.1829C125.64 17.1459 126.075 18.5156 126.075 20.3026V29.152H123.906V20.6415C123.906 19.3396 123.582 18.3373 122.982 17.631C122.279 16.8955 121.288 16.5045 120.272 16.561C119.222 16.5435 118.227 17.0253 117.589 17.8593C116.85 18.7892 116.47 19.954 116.519 21.1408V29.152H114.351V9.4165H116.505Z" fill="#9195A0"/>
<path fill-rule="evenodd" clip-rule="evenodd" d="M140.738 20.1528C140.738 18.5263 140.303 17.2529 139.49 16.3291C138.513 15.2733 137.05 14.7561 135.035 14.7633C133.351 14.7633 132.024 15.0914 130.994 15.7406C129.837 16.4762 129.048 17.6696 128.825 19.0221L130.965 19.1826C131.136 18.3426 131.654 17.6142 132.392 17.178C133.152 16.7236 134.03 16.5063 134.914 16.5538C137.353 16.5538 138.573 17.7202 138.573 20.0779V20.7913L135.21 20.8448C133.095 20.8733 131.468 21.2799 130.33 22.0397C129.028 22.8529 128.408 24.0443 128.408 25.6458C128.383 26.7351 128.862 27.775 129.706 28.4636C130.548 29.177 131.661 29.5337 133.07 29.5337C134.29 29.5492 135.494 29.2494 136.565 28.6634C137.408 28.206 138.139 27.5677 138.705 26.7943V29.152H140.738V20.1528ZM130.626 25.5887C130.626 23.5413 132.199 22.5248 135.342 22.4713L138.57 22.4285V23.6198C138.57 24.7041 138.053 25.6779 137.05 26.5197C136.073 27.3685 134.82 27.8315 133.526 27.8216C132.771 27.848 132.027 27.6249 131.411 27.1867C130.904 26.8141 130.611 26.2176 130.626 25.5887Z" fill="#9195A0"/>
<path fill-rule="evenodd" clip-rule="evenodd" d="M156.732 22.1576C156.732 20.0425 156.14 18.309 154.949 16.925C153.7 15.4626 152.038 14.7563 149.927 14.7563C147.815 14.7563 146.16 15.4626 144.912 16.925C143.724 18.309 143.128 20.071 143.128 22.1576C143.128 24.2442 143.72 25.9813 144.912 27.3367C146.16 28.7992 147.815 29.5339 149.927 29.5339C151.854 29.6037 153.709 28.7956 154.97 27.3367C156.137 25.9813 156.732 24.2728 156.732 22.1576ZM145.35 22.1576C145.35 20.5846 145.703 19.3113 146.463 18.2804C147.252 17.1571 148.559 16.5141 149.93 16.5755C151.307 16.5311 152.616 17.1692 153.429 18.2804C154.201 19.4225 154.589 20.7803 154.539 22.1576C154.582 23.5262 154.194 24.8737 153.429 26.0099C152.616 27.1211 151.307 27.7592 149.93 27.7148C148.559 27.7762 147.252 27.1332 146.463 26.0099C145.682 24.8815 145.291 23.5287 145.35 22.1576Z" fill="#9195A0"/>
<path d="M169.783 19.1222H167.668C167.564 18.3773 167.181 17.6995 166.598 17.2246C166.003 16.7894 165.136 16.5754 164.023 16.5754C163.049 16.5754 162.289 16.7359 161.747 17.1176C161.195 17.3954 160.848 17.962 160.852 18.58C160.852 19.1757 161.234 19.6929 162.047 20.0995C162.99 20.4768 163.959 20.7843 164.947 21.0197C166.627 21.4264 167.818 21.8615 168.553 22.3217C169.662 23.035 170.233 23.9767 170.233 25.1966C170.233 28.0501 168.253 29.5339 164.294 29.5339C160.609 29.5339 158.587 27.9074 158.277 24.6794H160.392C160.556 25.7922 160.963 26.5769 161.558 27.0656C162.154 27.5543 163.049 27.7148 164.24 27.7148C166.737 27.7148 168.011 26.9015 168.011 25.3285C168.011 24.5438 167.547 23.9482 166.68 23.513C165.71 23.1394 164.714 22.8401 163.698 22.6177C162.047 22.2111 160.88 21.8045 160.228 21.3729C159.216 20.8396 158.596 19.7768 158.63 18.6335C158.61 17.4798 159.21 16.404 160.203 15.8157C161.177 15.1023 162.478 14.7456 164.051 14.7456C167.515 14.7563 169.427 16.1938 169.783 19.1222Z" fill="#9195A0"/>
<path fill-rule="evenodd" clip-rule="evenodd" d="M186.64 12.4518C185.067 10.6648 182.763 9.79443 179.699 9.79443H172.758V29.1519H179.482C182.517 29.1519 184.85 28.2566 186.476 26.4946C188.021 24.8253 188.809 22.5104 188.809 19.4749C188.809 16.4395 188.067 14.0783 186.64 12.4518ZM179.104 27.2293H174.984V11.7205H179.36C181.911 11.7205 183.751 12.3733 184.946 13.7002C186.056 14.9486 186.626 16.8711 186.626 19.4749C186.626 22.011 186.002 23.9193 184.811 25.2212C183.523 26.5516 181.625 27.2293 179.104 27.2293Z" fill="#9195A0"/>
<path d="M204.839 9.79443V11.7205H193.343V18.1909H204.186V20.1134H193.343V27.2293H205.299V29.1519H191.12V9.79443H204.839Z" fill="#9195A0"/>
<path d="M210.232 9.79443L215.464 17.3312L220.726 9.79443H223.461L216.795 19.0933L223.979 29.1519H221.239L215.464 20.8553L209.732 29.1519H206.993L214.127 19.0933L207.496 9.79443H210.232Z" fill="#9195A0"/>
</svg>
