<svg xmlns="http://www.w3.org/2000/svg" xmlns:xlink="http://www.w3.org/1999/xlink" version="1.1" id="Layer_1" x="0px" y="0px" viewBox="0 0 135.2 135.2" style="enable-background:new 0 0 135.2 135.2;" xml:space="preserve">
<style type="text/css">
	.st0{fill:#21262C;}
</style>
<g>
	<polygon class="st0" points="18.6,28.5 28.5,22.8 29.9,25.1 66.6,3.9 63.9,2.3 61.2,0.8 59.9,0 0,34.6 0,36.1 17.2,26.2  "/>
	<polygon class="st0" points="18.6,50.3 47.4,33.7 48.7,36 85.5,14.8 82.8,13.2 80.1,11.7 78.8,10.9 0,56.3 0,57.9 17.2,48  "/>
	<polygon class="st0" points="18.6,61.2 56.8,39.1 58.1,41.4 94.9,20.2 92.2,18.7 89.5,17.1 88.2,16.3 0,67.2 0,68.8 17.2,58.8  "/>
	<polygon class="st0" points="18.6,72 66.5,44.4 67.8,46.7 104.3,25.6 101.6,24.1 98.9,22.5 97.6,21.8 0,78.1 0,79.6 17.2,69.7  "/>
	<polygon class="st0" points="18.6,82.9 75.9,49.8 77.2,52.2 113.7,31.1 111,29.5 108.4,28 107,27.2 0,89 0,90.5 17.2,80.6  "/>
	<polygon class="st0" points="117.8,33.4 116.4,32.6 0,99.9 0,101.4 17.2,91.5 18.6,93.8 75.9,60.7 77.2,63 119.8,38.5 119.8,35.4    119.8,34.6  "/>
	<polygon class="st0" points="7.4,108 17,102.5 18.4,104.8 75.6,71.7 77,74.1 119.8,49.3 119.8,46.2 119.8,43.1 119.8,41.6    6.1,107.2  "/>
	<polyline class="st0" points="75.6,82.6 77,85 119.8,60.2 119.8,57.1 119.8,54 119.8,52.5 15.5,112.7 16.8,113.5 26.6,107.8    28,110.1  "/>
	<polygon class="st0" points="26.2,118.9 36.1,113.2 37.4,115.6 75.6,93.5 77,95.8 119.8,71.1 119.8,68 119.8,64.9 119.8,63.3    24.9,118.1  "/>
	<polygon class="st0" points="35.7,124.3 45.5,118.7 46.8,121 75.6,104.4 77,106.7 119.8,82 119.8,78.9 119.8,75.8 119.8,74.2    34.3,123.6  "/>
	<polygon class="st0" points="43.7,129 45.1,129.8 54.9,124.1 56.2,126.5 75.6,115.3 77,117.6 119.8,92.9 119.8,89.8 119.8,86.6    119.8,85.1  "/>
	<polygon class="st0" points="54.5,135.2 64.3,129.6 65.7,131.9 75.6,126.1 77,128.5 119.8,103.8 119.8,100.6 119.8,97.5 119.8,96    53.2,134.5  "/>
	<polygon class="st0" points="76.1,9.3 73.4,7.8 73.4,7.8 70.7,6.2 69.3,5.4 0,45.5 0,47 17.2,37.1 18.6,39.4 38,28.2 39.3,30.5     "/>
</g>
</svg>