<svg xmlns="http://www.w3.org/2000/svg" viewBox="0 0 2459.02 2459.02">
    <defs>
        <style>
            .cls-1,
            .cls-3,
            .cls-4,
            .cls-6,
            .cls-7,
            .cls-8 {
                fill: #fff;
            }

            .cls-1 {
                opacity: 0.8;
            }

            .cls-2 {
                fill: #febe44;
            }

            .cls-3 {
                opacity: 0.6;
            }

            .cls-4 {
                opacity: 0.7;
            }

            .cls-5 {
                fill: #d9a547;
                opacity: 0.42;
                isolation: isolate;
            }

            .cls-6 {
                opacity: 0.5;
            }

            .cls-7 {
                opacity: 0.9;
            }
        </style>
    </defs>
    <title>DAI Logo</title>
    <g id="Layer_2" data-name="Layer 2">
        <g id="Layer_1-2" data-name="Layer 1">
            <polygon class="cls-1"
                points="2171.05 1209.37 2170.95 1209.4 1229.51 2150.84 1229.51 2150.84 1229.51 2150.84 1229.51 2150.84 1229.51 1516.39 288 1209.38 1229.52 2150.9 2171.05 1209.37" />
            <polygon class="cls-2"
                points="1229.51 267.23 1229.51 267.19 286.88 1209.02 288 1209.38 287.67 1209.06 1229.51 267.23" />
            <polygon class="cls-2"
                points="2171.33 1209.02 2171.36 1209.06 2171.05 1209.37 2172.13 1209.02 1229.51 267.19 2171.34 1209.02 2171.33 1209.02" />
            <polygon class="cls-2"
                points="2171.33 1209.02 2170.95 1209.4 2171.05 1209.37 2171.36 1209.06 2171.33 1209.02" />
            <polygon class="cls-3"
                points="1229.51 942.62 1045.08 1147.54 614.75 1147.54 1229.51 461.08 1229.51 267.23 287.67 1209.06 288 1209.38 1229.51 1516.39 1229.51 942.62" />
            <polygon class="cls-4" points="1229.51 2150.84 2170.95 1209.4 1229.51 1516.39 1229.51 2150.84" />
            <polygon class="cls-2"
                points="1229.52 267.22 2171.33 1209.02 2171.34 1209.02 1229.51 267.19 1229.51 267.23 1229.52 267.22" />
            <polygon class="cls-5"
                points="1229.52 267.22 2171.33 1209.02 2171.34 1209.02 1229.51 267.19 1229.51 267.23 1229.52 267.22" />
            <polygon class="cls-6"
                points="1229.52 267.22 1229.51 267.23 1229.51 461.08 1864.75 1147.54 1434.43 1147.54 1229.51 942.62 1229.51 1516.39 2170.95 1209.4 2171.33 1209.02 1229.52 267.22" />
            <polygon class="cls-7"
                points="1864.75 1147.54 1229.51 461.08 1229.51 942.62 1434.43 1147.54 1864.75 1147.54" />
            <path class="cls-8"
                d="M1229.51,0C550.47,0,0,550.47,0,1229.51S550.47,2459,1229.51,2459,2459,1908.55,2459,1229.51,1908.55,0,1229.51,0Zm0,2150.9L288,1209.38l-1.11-.36,942.62-941.83L2172.13,1209l-1.09.35Z" />
            <polygon class="cls-8"
                points="2171.33 1209.02 2170.95 1209.4 2171.05 1209.37 2171.36 1209.06 2171.33 1209.02" />
        </g>
    </g>
</svg>