<svg viewBox="0 0 54 54">
    <title>DGX Logo</title>
    <g id="Symbols" stroke="none" stroke-width="1" fill="none" fill-rule="evenodd">
        <g id="Token-Icons-(negative)" transform="translate(-667.000000, -156.000000)" fill="#FFFFFF">
            <g id="Group" transform="translate(667.065414, 156.000000)">
                <rect id="Rectangle-Copy-2_1_" x="14.9818295" y="19.9690311" width="7.39103591" height="2.99535467"></rect>
                <path d="M26.9672932,0 C12.0853425,0 0,12.0812638 0,26.958192 C0,41.8351202 12.0853425,53.9163841 26.9672932,53.9163841 C41.8492439,53.9163841 53.9345864,41.8351202 53.9345864,26.958192 C53.9345864,12.0812638 41.8492439,0 26.9672932,0 Z M27.7663241,12.0812638 L40.7505764,12.0812638 L40.7505764,14.6772379 L30.5629323,14.6772379 L30.5629323,22.2654697 L38.0538471,22.2654697 L38.0538471,19.869186 L32.8601461,19.869186 L32.8601461,17.2732119 L40.8504552,17.2732119 L40.8504552,24.8614438 L27.866203,24.8614438 L27.866203,12.0812638 L27.7663241,12.0812638 Z M12.9842523,12.181109 L21.0744402,12.181109 L21.0744402,15.2763088 L12.9842523,15.2763088 L12.9842523,12.181109 Z M12.6846157,17.2732119 L22.9721386,17.2732119 L22.9721386,12.0812638 L25.8686257,12.0812638 L25.8686257,24.8614438 L12.6846157,24.8614438 L12.6846157,17.2732119 L12.6846157,17.2732119 Z M41.1500918,42.933417 L35.2572389,42.933417 L26.9672932,37.2422431 L18.6773475,42.933417 L12.7844945,42.933417 L23.9709273,35.24534 L12.7844945,27.557263 L18.6773475,27.557263 L26.9672932,33.2484369 L35.2572389,27.557263 L41.1500918,27.557263 L29.9636591,35.24534 L41.1500918,42.933417 Z" id="Shape-Copy-2_1_" fill-rule="nonzero"></path>
            </g>
        </g>
    </g>
</svg>