<svg viewBox="0 0 54 54">
    <title>GUSD Logo</title>
    <g id="Symbols" stroke="none" stroke-width="1" fill="none" fill-rule="evenodd">
        <g id="Token-Icons-(negative)" transform="translate(-667.000000, -474.000000)" fill="#FFFFFF">
            <g id="Group" transform="translate(667.065414, 474.506047)">
                <path d="M21.3740768,42.334346 C26.1682623,42.334346 30.1634168,38.9396107 30.9624477,34.2468884 L11.8855848,34.2468884 C12.5847368,38.9396107 16.6797702,42.334346 21.3740768,42.334346 Z" id="Path"></path>
                <path d="M33.8589348,31.3513789 C38.0538471,30.752308 41.3498496,27.4574178 41.9491227,23.3637664 L33.8589348,23.3637664 L33.8589348,31.3513789 Z" id="Path"></path>
                <path d="M19.9757727,31.4512241 L19.9757727,23.4636116 C15.7808605,24.0626825 12.484858,27.3575727 11.8855848,31.4512241 L19.9757727,31.4512241 Z" id="Path"></path>
                <rect id="Rectangle" x="22.7723809" y="23.3637664" width="8.28994568" height="8.08745761"></rect>
                <path d="M32.4606307,12.5804896 C27.6664452,12.5804896 23.6712907,15.9752249 22.8722598,20.6679472 L41.9491227,20.6679472 C41.2499707,15.9752249 37.2548161,12.5804896 32.4606307,12.5804896 Z" id="Path"></path>
                <path d="M26.9672932,0 C12.0853425,0 0,11.8815735 0,26.4589663 C0,41.036359 12.0853425,52.9179325 26.9672932,52.9179325 C41.8492439,52.9179325 53.9345864,41.036359 53.9345864,26.4589663 C53.9345864,11.8815735 41.8492439,0 26.9672932,0 Z M33.7590559,34.1470433 C33.0599039,40.3374429 27.6664452,45.0301652 21.3740768,45.0301652 C14.4824352,45.0301652 8.88921887,39.5386817 8.88921887,32.8490562 C8.88921887,26.6586566 13.7832832,21.3668633 19.9757727,20.6679472 C20.6749248,14.4775476 26.0683834,9.78482526 32.3607518,9.78482526 C39.2523934,9.78482526 44.8456098,15.2763088 44.8456098,21.9659343 C44.9454886,28.2561791 40.0514243,33.5479723 33.7590559,34.1470433 Z" id="Shape" fill-rule="nonzero"></path>
            </g>
        </g>
    </g>
</svg>