<svg viewBox="0 0 55 55">
    <title>OMG Logo</title>
    <g id="Symbols" stroke="none" stroke-width="1" fill="none" fill-rule="evenodd">
        <g id="Token-Icons-(negative)" transform="translate(-508.000000, -949.000000)" fill="#FFFFFF">
            <g id="Group" transform="translate(508.258020, 949.768988)">
                <path d="M19.9757727,25.9597405 C22.7723809,25.9597405 25.0695948,23.6633019 25.0695948,20.8676375 L25.0695948,20.8676375 C25.0695948,18.0719732 22.7723809,15.7755346 19.9757727,15.7755346 C17.1791646,15.7755346 14.8819507,18.0719732 14.8819507,20.8676375 C14.8819507,23.6633019 17.0792857,25.9597405 19.9757727,25.9597405 Z" id="Path"></path>
                <ellipse id="Oval" cx="35.6567543" cy="20.8676375" rx="5.09382205" ry="5.09210294"></ellipse>
                <ellipse id="Oval" cx="19.9757727" cy="36.4434818" rx="5.09382205" ry="5.09210294"></ellipse>
                <path d="M26.9672932,0 C12.0853425,0 0,12.0812638 0,26.958192 C0,41.8351202 12.0853425,53.9163841 26.9672932,53.9163841 C41.8492439,53.9163841 53.9345864,41.8351202 53.9345864,26.958192 C53.9345864,12.0812638 41.8492439,0 26.9672932,0 Z M12.7844945,19.3699602 C13.4836466,15.9752249 16.4800125,13.479096 19.9757727,13.479096 L27.2669298,13.479096 L27.2669298,15.6756894 L25.1694736,15.6756894 C27.5665664,18.1718183 27.9660818,22.0657794 25.9685046,24.9612889 C23.9709273,27.8567984 20.2754093,28.9550952 17.0792857,27.557263 C13.883162,26.259276 12.0853425,22.7646955 12.7844945,19.3699602 Z M19.9757727,43.8320234 C15.8807393,43.8320234 12.6846157,40.5371332 12.6846157,36.543327 C12.6846157,32.4496756 15.9806182,29.2546306 19.9757727,29.2546306 L19.9757727,29.2546306 C24.0708061,29.2546306 27.2669298,32.5495208 27.2669298,36.543327 C27.2669298,40.5371332 23.9709273,43.8320234 19.9757727,43.8320234 Z M35.6567543,28.1563339 C31.5617209,28.1563339 28.3655973,24.8614438 28.3655973,20.8676375 C28.3655973,16.7739862 31.6615998,13.5789412 35.6567543,13.5789412 C39.7517877,13.5789412 42.9479114,16.8738313 42.9479114,20.8676375 C42.9479114,24.8614438 39.6519089,28.1563339 35.6567543,28.1563339 Z" id="Shape" fill-rule="nonzero"></path>
            </g>
        </g>
    </g>
</svg>