<svg viewBox="0 0 54 54">
    <defs>
        <style>
            .cls-1 {
                fill: #fff;
            }
        </style>
    </defs>
    <title>PAX Logo</title>
    <g id="Layer_2" data-name="Layer 2">
        <g id="Layer_1-2" data-name="Layer 1">
            <path class="cls-1"
                d="M27,0A27,27,0,1,0,54,27,27,27,0,0,0,27,0ZM21.21,9.16C24.07,7,27.16,6.74,30.1,8.75a24.9,24.9,0,0,0,10.53,3.72c.79.12,1.58.25,2.37.41a4.38,4.38,0,0,1,3.73,4.19A12,12,0,0,1,46.14,22c-.79-1-1.51-1.92-2.32-2.79a20.65,20.65,0,0,0-8.4-5.94c-2.37-.78-4.62-1.85-7-2.5a38.28,38.28,0,0,0-7.14-1.18l-.47,0ZM45.64,23.37a35.41,35.41,0,0,1-6.88,10.81c3.3-7.27,3.16-14-2.87-19.88.18.08.47.18.73.32a24.47,24.47,0,0,1,8.91,8.12A.79.79,0,0,1,45.64,23.37Zm-25.52-13a34.7,34.7,0,0,1,9.63,1.72l.22.12a19.16,19.16,0,0,0-14.45,6.27c-3.88,4.24-5.14,9.35-4.52,15a15.76,15.76,0,0,1-.28-6.66,28,28,0,0,1,6.87-14.09c.63-.72,1.29-1.41,2-2.09A.85.85,0,0,1,20.12,10.34ZM7.52,38.18A6.75,6.75,0,0,1,6,33.12a14.94,14.94,0,0,1,1.37-5.34,37.88,37.88,0,0,0,2.43-8.33c.27-1.41.59-2.82,1-4.2.89-3.05,3.07-4.53,6.14-4.84.51-.06,1-.08,1.67-.13-.46.49-.82.89-1.18,1.29a30.1,30.1,0,0,0-7,12.42,18.43,18.43,0,0,0-.17,10.07A12.16,12.16,0,0,0,12.18,38a7.37,7.37,0,0,1,.43.78l1.54,2.78C11.62,41,9.25,40.18,7.52,38.18Zm7.66,3.19a17.44,17.44,0,0,1-3.43-11.85,16.66,16.66,0,0,1,3.81-9.83,18.1,18.1,0,0,1,10.85-6.27,18.24,18.24,0,0,1,5.52-.21,4,4,0,0,1,1.69.65A12.92,12.92,0,0,1,40,24.66a15.36,15.36,0,0,1-4.5,12.19,17.31,17.31,0,0,1-9.7,5c-1.48.25-3,.31-4.31.44L16,41.86A1.11,1.11,0,0,1,15.18,41.37Zm29-6.33c-.85.51-1.76.89-2.65,1.32a32.29,32.29,0,0,0-7.68,5.38c-1.21,1.09-2.43,2.18-3.7,3.2a7.3,7.3,0,0,1-5.26,1.8,14.16,14.16,0,0,1-8.44-3.93c1.29.08,2.43.12,3.57.21A21.87,21.87,0,0,0,36,37.9,35.84,35.84,0,0,0,46.13,24.49c0-.12.11-.23.19-.4a11.78,11.78,0,0,1,1.17,3A6.78,6.78,0,0,1,44.15,35Z" />
            <path class="cls-1"
                d="M38,27a12,12,0,0,0-4.78-9.57,9,9,0,0,0-2.16-1.35,11.49,11.49,0,0,0-2.58-.82A12,12,0,1,0,38,27Z" />
        </g>
    </g>
</svg>