<svg viewBox="0 0 55 55">
    <title>Ren Logo</title>
    <g id="Symbols" stroke="none" stroke-width="1" fill="none" fill-rule="evenodd">
        <g id="Token-Icons-(negative)" transform="translate(-508.000000, -314.000000)" fill="#FFFFFF" fill-rule="nonzero">
            <path d="M535.225314,314.753798 C520.343363,314.753798 508.25802,326.835061 508.25802,341.71199 C508.25802,356.588918 520.343363,368.670182 535.225314,368.670182 C550.107264,368.670182 562.192607,356.588918 562.192607,341.71199 C562.192607,326.835061 550.107264,314.753798 535.225314,314.753798 Z M514.949904,329.630726 L535.125435,318.148533 L535.52495,318.448068 L536.42386,318.947294 L537.32277,319.44652 L524.937791,326.535526 L524.438396,325.736765 L521.142394,327.633823 L520.642999,326.835061 L514.850025,330.129952 L514.850025,329.630726 L514.949904,329.630726 Z M514.949904,333.225151 L538.221679,319.945746 L538.721074,320.245281 L539.619984,320.744507 L540.518893,321.243733 L528.133914,328.332739 L527.734399,327.533978 L521.242273,331.228248 L520.742878,330.429487 L514.949904,333.724377 L514.949904,333.225151 Z M514.949904,336.819577 L541.417803,321.742959 L541.817319,322.042494 L542.716228,322.54172 L543.615138,323.040946 L531.230159,330.129952 L530.830644,329.33119 L521.142394,334.822674 L520.642999,334.023913 L514.850025,337.318803 L514.850025,336.819577 L514.949904,336.819577 Z M514.949904,340.414003 L544.613927,323.540171 L545.013442,323.839707 L545.912352,324.338933 L546.811262,324.838158 L534.426283,331.927164 L534.026767,331.128403 L521.142394,338.516945 L520.642999,337.718183 L514.850025,341.013074 L514.850025,340.414003 L514.949904,340.414003 Z M514.949904,344.108273 L547.81005,325.437229 L548.209566,325.63692 L549.108476,326.136145 L550.007385,326.635371 L537.722285,333.624532 L537.32277,332.825771 L521.242273,342.011525 L520.742878,341.212764 L514.949904,344.507654 L514.949904,344.108273 L514.949904,344.108273 Z M514.949904,347.702699 L550.906295,327.134597 L551.40569,327.434132 L552.304599,327.933358 L553.203509,328.432584 L540.918409,335.421745 L540.518893,334.622984 L521.242273,345.705796 L520.742878,344.907035 L514.949904,348.201925 L514.949904,347.702699 Z M514.949904,351.79635 L514.949904,351.297125 L554.102419,328.93181 L554.601813,329.231345 L555.300965,329.630726 L555.300965,329.930261 L555.300965,330.928713 L541.018288,339.01617 L540.618772,338.217409 L521.342152,349.200376 L520.842757,348.401615 L514.949904,351.79635 Z M517.04736,353.693408 L555.300965,331.927164 L555.300965,332.42639 L555.300965,333.424842 L555.300965,334.423293 L540.918409,342.610596 L540.419014,341.811835 L521.142394,352.794802 L520.642999,351.996041 L517.446876,353.793253 L517.04736,353.693408 Z M520.143605,355.590466 L555.201086,335.621435 L555.201086,336.120661 L555.201086,337.119112 L555.201086,338.117564 L540.81853,346.304867 L540.319136,345.506106 L524.338517,354.592015 L523.839123,353.793253 L520.543121,355.690311 L520.143605,355.590466 Z M523.339729,357.387679 L555.300965,339.215861 L555.300965,339.715087 L555.300965,340.713538 L555.300965,341.71199 L540.918409,349.899292 L540.419014,349.100531 L527.534641,356.489073 L527.135126,355.690311 L523.839123,357.587369 L523.339729,357.387679 Z M526.535852,359.184892 L555.300965,342.810286 L555.300965,343.309512 L555.300965,344.307964 L555.300965,345.306415 L540.918409,353.493718 L540.419014,352.694957 L530.730765,358.18644 L530.331249,357.387679 L527.035247,359.284737 L526.535852,359.184892 Z M555.201086,350.498363 L555.201086,351.496815 L555.201086,352.595112 L540.81853,360.782414 L540.319136,359.983653 L537.023133,361.880711 L536.523739,361.08195 L533.227736,362.979008 L532.828221,362.779318 L555.201086,349.999138 L555.201086,350.498363 Z M555.300965,347.902389 L555.300965,348.900841 L540.918409,357.088144 L540.419014,356.289382 L533.926888,359.983653 L533.527373,359.184892 L530.23137,361.08195 L529.731976,360.782414 L555.300965,346.205022 L555.300965,346.704247 L555.300965,347.902389 L555.300965,347.902389 Z" id="Shape"></path>
        </g>
    </g>
</svg>