<svg viewBox="0 0 55 55">
    <title>TUSD Logo</title>
    <g id="Symbols" stroke="none" stroke-width="1" fill="none" fill-rule="evenodd">
        <g id="Token-Icons-(negative)" transform="translate(-508.000000, -632.000000)" fill="#FFFFFF" fill-rule="nonzero">
            <path d="M535.225314,632.261393 C520.343363,632.261393 508.25802,644.342657 508.25802,659.219585 C508.25802,674.096513 520.343363,686.177777 535.225314,686.177777 C550.107264,686.177777 562.192607,674.096513 562.192607,659.219585 C562.192607,644.342657 550.107264,632.261393 535.225314,632.261393 Z M514.949904,657.821753 C514.150873,650.433211 517.346997,645.041573 523.339729,640.947921 C532.02919,635.356593 543.315502,636.554735 550.606659,643.843431 C551.805205,645.141418 553.003751,646.53925 553.802782,648.036927 L553.603025,648.236618 C551.905084,646.33956 549.907507,644.841882 547.510414,643.643741 C542.616349,641.147612 537.023133,640.748231 531.829432,642.445599 C527.235004,643.943276 523.739244,646.439405 521.242273,650.333366 C517.247118,656.723456 518.046149,665.110449 523.23985,670.502087 L523.539487,670.801623 L523.339729,671.001313 C518.645422,668.505184 515.34942,663.512927 514.949904,657.821753 Z M525.936579,654.327172 C525.437185,654.327172 525.437185,654.127482 525.636943,653.628256 C526.635731,651.631353 528.53343,650.632901 530.730765,650.233521 C532.728342,649.933985 534.825798,650.033831 536.823375,650.033831 L544.713806,650.033831 C544.214411,652.130579 542.616349,653.628256 540.518893,654.027637 L538.521316,654.227327 C537.822164,654.227327 537.722285,654.427017 537.32277,655.225779 L537.32277,664.511378 C537.32277,667.207197 534.825798,669.2041 532.728342,669.703326 L532.728342,654.227327 L525.936579,654.227327 L525.936579,654.327172 Z M547.81005,676.892177 C544.414169,679.288461 540.718651,680.586448 536.523739,680.786138 C528.433551,681.385209 520.742878,677.291558 516.647845,670.302397 L516.847603,670.102707 C519.244695,672.498991 521.941425,674.296203 525.137548,675.494345 C531.030401,677.690939 537.622406,676.992023 543.015865,673.597287 C547.510414,671.101158 550.606659,666.608126 551.40569,661.416178 C552.20472,656.324075 550.706537,651.930888 547.410535,648.136773 L546.711383,647.338011 L546.911141,647.138321 C551.805205,649.734295 555.101207,654.726553 555.700481,660.317882 C556.299754,667.506733 553.403267,672.898371 547.81005,676.892177 Z" id="Shape"></path>
        </g>
    </g>
</svg>