<svg viewBox="0 0 54 54">
    <title>USDT Logo</title>
    <g id="Symbols" stroke="none" stroke-width="1" fill="none" fill-rule="evenodd">
        <g id="Token-Icons-(negative)" transform="translate(-899.000000, -406.000000)" fill="#FFFFFF" fill-rule="nonzero">
            <g id="Group-9" transform="translate(141.000000, 156.000000)">
                <g id="tether-seeklogo.com-2" transform="translate(785.000000, 277.000000) scale(-1, 1) translate(-785.000000, -277.000000) translate(758.000000, 250.000000)">
                    <path d="M27,0 C41.91102,0 54,12.08898 54,27 C54,41.91102 41.91048,54 27,54 C12.08952,54 0,41.91426 0,27 C0,12.08574 12.08736,0 27,0 Z M30.293169,23.7753596 L30.293169,19.7037531 L39.3730056,19.7037531 L39.3730056,13.5 L14.6483474,13.5 L14.6483474,19.7037531 L23.7292517,19.7037531 L23.7292517,23.7720751 C16.3491152,24.119678 10.8,25.6184758 10.8,27.4139678 C10.8,29.2094597 16.3517844,30.7082576 23.7292517,31.0580501 L23.7292517,44.1 L30.2953043,44.1 L30.2953043,31.0569553 C37.6620951,30.7082576 43.2,29.2105546 43.2,27.4167048 C43.2,25.6228551 37.6620951,24.1251521 30.2953043,23.7764544 L30.293169,23.7753596 Z M30.2953043,29.9522898 L30.2953043,29.9490054 C30.1100669,29.9610483 29.1582562,30.0196208 27.0389693,30.0196208 C25.3446074,30.0196208 24.1525752,29.9703542 23.7324546,29.9479106 L23.7324546,29.9533846 C17.2123109,29.6572379 12.3454246,28.4929052 12.3454246,27.0997567 C12.3454246,25.7066082 17.2128448,24.5439177 23.7324546,24.2472236 L23.7324546,28.7934311 C24.1595149,28.8235385 25.3809075,28.8974383 27.0667282,28.8974383 C29.091528,28.8974383 30.1095331,28.8109481 30.296372,28.7934311 L30.296372,24.2472236 C36.8037038,24.5444651 41.6593798,25.7098927 41.6593798,27.0981145 C41.6593798,28.4863363 36.8015685,29.6523113 30.296372,29.9495528 L30.2953043,29.9522898 Z" id="Combined-Shape"></path>
                </g>
            </g>
        </g>
    </g>
</svg>