<svg viewBox="0 0 55 55">
    <title>WBTC Logo</title>
    <g id="Symbols" stroke="none" stroke-width="1" fill="none" fill-rule="evenodd">
        <g id="Token-Icons-(negative)" transform="translate(-508.000000, -473.000000)" fill="#FFFFFF">
            <g id="Group-10" transform="translate(508.258020, 473.507595)">
                <path d="M30.76269,23.4636116 C30.76269,20.7677924 26.6676566,21.167173 25.3692314,21.167173 L25.3692314,25.7600502 C26.6676566,25.7600502 30.76269,26.0595856 30.76269,23.4636116 Z" id="Path"></path>
                <path d="M25.3692314,28.0564888 L25.3692314,33.1485917 C26.9672932,33.1485917 31.8613575,33.4481272 31.8613575,30.6524628 C31.8613575,27.6571081 26.8674143,28.0564888 25.3692314,28.0564888 Z" id="Path"></path>
                <g id="Group" transform="translate(0.000000, 0.000000)" fill-rule="nonzero">
                    <path d="M26.9672932,0 C12.0853425,0 0,12.0812638 0,26.958192 C0,41.8351202 12.0853425,53.9163841 26.9672932,53.9163841 C41.8492439,53.9163841 53.9345864,41.8351202 53.9345864,26.958192 C53.9345864,12.0812638 41.8492439,0 26.9672932,0 Z M26.7675355,50.621494 C13.5835255,50.621494 2.99636591,39.9380623 2.99636591,26.8583469 C2.99636591,13.6787863 13.6834043,3.09519983 26.7675355,3.09519983 C39.9515455,3.09519983 50.538705,13.7786315 50.538705,26.8583469 C50.538705,39.9380623 39.9515455,50.621494 26.7675355,50.621494 Z" id="Shape"></path>
                    <path d="M26.7675355,4.89241263 C14.682193,4.89241263 4.79418546,14.6772379 4.79418546,26.8583469 C4.79418546,38.9396107 14.5823141,48.8242812 26.7675355,48.8242812 C38.9527568,48.8242812 48.7408855,39.0394559 48.7408855,26.8583469 C48.7408855,14.6772379 38.852878,4.89241263 26.7675355,4.89241263 Z M40.5508186,11.7817284 L39.2523934,13.0797154 C32.1609941,6.58978028 21.3740768,6.58978028 14.2826775,13.0797154 L12.9842523,11.7817284 C20.7748036,4.59287716 32.7602673,4.59287716 40.5508186,11.7817284 Z M25.2693525,35.9442561 L25.2693525,39.738372 L22.9721386,39.738372 L22.9721386,35.8444109 L21.3740768,35.8444109 L18.3777109,35.8444109 L18.8771052,33.0487465 C18.8771052,33.0487465 20.5750459,33.0487465 20.5750459,33.0487465 C20.7748036,33.0487465 20.9745614,32.9489014 21.1743191,32.8490562 C21.3740768,32.7492111 21.4739557,32.5495208 21.4739557,32.2499853 L21.4739557,21.9659343 C21.3740768,21.3668633 20.7748036,20.8676375 20.1755305,20.9674827 C20.1755305,20.9674827 18.4775898,20.9674827 18.4775898,20.9674827 L18.4775898,18.4713538 L21.6737134,18.4713538 C22.1731077,18.4713538 22.6725021,18.4713538 23.1718964,18.4713538 L23.1718964,14.6772379 L25.4691102,14.6772379 L25.4691102,18.3715087 C26.0683834,18.3715087 26.7675355,18.3715087 27.3668086,18.3715087 L27.3668086,14.6772379 L29.6640225,14.6772379 L29.6640225,18.4713538 C32.6603884,18.7708893 34.9576023,19.6694957 35.2572389,22.3653149 L35.3571177,22.3653149 C35.5568755,24.362218 34.7578446,25.5603599 33.3595405,26.259276 C35.5568755,26.7585017 36.9551796,28.0564888 36.655543,31.0518434 C36.3559064,34.646269 33.5592982,35.6447206 29.7639014,35.8444109 L29.7639014,39.6385268 L27.4666875,39.6385268 L27.4666875,35.9442561 C26.5677777,35.9442561 25.9685046,35.9442561 25.2693525,35.9442561 Z M11.7857059,12.9798702 L13.0841311,14.2778573 C6.592005,21.3668633 6.592005,32.1501401 13.0841311,39.2391462 L11.7857059,40.5371332 C4.59442773,32.8490562 4.59442773,20.7677924 11.7857059,12.9798702 Z M12.9842523,41.8351202 L14.2826775,40.5371332 C21.3740768,47.0270683 32.1609941,47.0270683 39.2523934,40.5371332 L40.5508186,41.8351202 C32.7602673,49.0239715 20.7748036,49.0239715 12.9842523,41.8351202 Z M41.8492439,40.6369784 L40.5508186,39.3389914 C47.0429448,32.2499853 47.0429448,21.4667085 40.5508186,14.3777024 L41.8492439,13.0797154 L41.8492439,13.0797154 C49.0405221,20.7677924 49.0405221,32.8490562 41.8492439,40.6369784 Z" id="Shape"></path>
                </g>
            </g>
        </g>
    </g>
</svg>