<svg viewBox="0 0 40 40">
    <title>ZEC Logo</title>
    <g id="RenEx-(video)" stroke="none" stroke-width="1" fill="none" fill-rule="evenodd">
        <g id="5" transform="translate(-908.000000, -282.000000)" fill="#FFFFFF" fill-rule="nonzero">
            <g id="Group-6" transform="translate(908.000000, 282.000000)">
                <path d="M19.9911308,1.0658141e-14 C8.96674058,1.0658141e-14 1.0658141e-14,8.96674058 1.0658141e-14,19.9911308 C1.0658141e-14,31.0155211 8.96674058,39.9822616 19.9911308,39.9822616 C31.0155211,39.9822616 39.9822616,31.0155211 39.9822616,19.9911308 C39.9822616,8.96674058 31.0155211,1.0658141e-14 19.9911308,1.0658141e-14 Z M19.9911308,36.6829268 C10.7849224,36.6829268 3.29933481,29.1973392 3.29933481,19.9911308 C3.29933481,10.7849224 10.7849224,3.29933481 19.9911308,3.29933481 C29.1973392,3.29933481 36.6829268,10.7849224 36.6829268,19.9911308 C36.6829268,29.1973392 29.1973392,36.6829268 19.9911308,36.6829268 Z" id="Shape"></path>
                <path d="M19.9911308,35.7427938 C11.2917276,35.7427938 4.23946785,28.6905341 4.23946785,19.9911308 C4.23946785,11.2917276 11.2917276,4.23946785 19.9911308,4.23946785 C28.6905341,4.23946785 35.7427938,11.2917276 35.7427938,19.9911308 C35.7427938,28.6905341 28.6905341,35.7427938 19.9911308,35.7427938 Z M12.8603104,26.2084257 L12.8603104,29.2594235 L18.3148559,29.2594235 L18.3148559,32.6031042 L21.6674058,32.6031042 L21.6674058,29.2594235 L27.1219512,29.2594235 L27.1219512,25.2239468 L18.6607539,25.2239468 L27.1219512,13.7472284 L27.1219512,10.6962306 L21.6674058,10.6962306 L21.6674058,7.36141907 L18.3148559,7.36141907 L18.3148559,10.6962306 L12.8603104,10.6962306 L12.8603104,14.7405765 L21.3215078,14.7405765 L12.8603104,26.2084257 Z" id="Combined-Shape"></path>
            </g>
        </g>
    </g>
</svg>