<svg viewBox="0 0 55 54">
    <title>ZRX Logo</title>
    <g id="Symbols" stroke="none" stroke-width="1" fill="none" fill-rule="evenodd">
        <g id="Token-Icons-(negative)" transform="translate(-508.000000, -791.000000)" fill="#FFFFFF" fill-rule="nonzero">
            <path d="M535.225314,791.01519 C520.343363,791.01519 508.25802,803.096454 508.25802,817.973382 C508.25802,832.850311 520.343363,844.931575 535.225314,844.931575 C550.107264,844.931575 562.192607,832.850311 562.192607,817.973382 C562.192607,803.096454 550.107264,791.01519 535.225314,791.01519 Z M522.241061,804.793822 C524.937791,802.098003 528.233793,800.400635 532.02919,799.701719 C532.728342,799.601874 533.527373,799.502029 534.226525,799.402184 C534.326404,799.402184 534.426283,799.402184 534.426283,799.402184 L536.024344,799.402184 C536.323981,799.402184 536.623618,799.502029 536.923254,799.502029 C539.619984,799.801564 542.017076,800.50048 544.414169,801.898312 C544.414169,801.898312 544.514048,801.898312 544.514048,801.998158 C540.718651,804.693977 536.923254,807.389796 533.227736,810.085615 C533.127857,809.98577 532.9281,809.78608 532.828221,809.686235 C532.02919,808.887473 531.230159,808.088712 530.431128,807.389796 C530.331249,807.289951 530.23137,807.289951 530.031613,807.289951 C528.133914,808.288402 526.535852,809.586389 525.337306,811.383602 C525.337306,811.483447 525.237427,811.483447 525.137548,811.683138 C523.739244,809.78608 522.34094,807.988867 520.942636,806.191654 C521.342152,805.692428 521.741667,805.193203 522.241061,804.793822 Z M517.04736,821.667653 C516.148451,817.174621 516.847603,812.88128 519.144817,808.787628 C521.941425,812.481899 524.738033,816.17617 527.534641,819.770595 C526.935368,820.369666 526.435974,820.968737 525.8367,821.467963 C525.437185,821.867344 525.037669,822.366569 524.538275,822.76595 C524.438396,822.865795 524.438396,822.96564 524.438396,823.165331 C525.437185,825.062389 526.73561,826.659911 528.53343,827.858053 C528.633309,827.858053 528.633309,827.957898 528.733187,827.957898 C528.733187,827.957898 528.733187,827.957898 528.733187,828.057743 C526.935368,829.455575 525.037669,830.753562 523.23985,832.151395 C520.043726,829.35573 517.846391,825.86115 517.04736,821.667653 Z M549.208354,830.054646 C546.211989,833.449382 542.516471,835.54613 537.922043,836.245046 C537.32277,836.344891 536.823375,836.344891 536.224102,836.444736 C536.124223,836.444736 536.024344,836.444736 536.024344,836.444736 L534.326404,836.444736 C533.827009,836.444736 533.427494,836.344891 532.9281,836.344891 C530.431128,836.045356 528.133914,835.246594 525.936579,834.048453 C525.936579,834.048453 525.8367,834.048453 525.8367,833.948607 C529.532218,831.152943 533.227736,828.357279 537.023133,825.661459 C537.422649,826.06084 537.822164,826.360376 538.121801,826.759756 C538.721074,827.358827 539.420226,827.957898 540.019499,828.556969 C540.219257,828.756659 540.319136,828.656814 540.419014,828.656814 C542.316713,827.658363 543.814896,826.360376 545.013442,824.663008 C545.113321,824.563163 545.113321,824.463318 545.2132,824.363472 C545.313079,824.463318 545.313079,824.463318 545.313079,824.563163 C546.611504,826.26053 547.909929,827.957898 549.208354,829.755111 C549.408112,829.854956 549.408112,829.954801 549.208354,830.054646 Z M551.305811,827.059292 C548.509202,823.365021 545.812473,819.770595 543.015865,816.076325 C543.515259,815.577099 544.014654,814.978028 544.514048,814.478802 C544.913563,814.079421 545.412958,813.580196 545.812473,813.180815 C545.912352,813.08097 545.912352,812.981125 545.912352,812.781434 C544.913563,810.884376 543.615138,809.286854 541.817319,808.088712 C541.71744,808.088712 541.71744,807.988867 541.617561,807.889022 C543.515259,806.49119 545.313079,805.093357 547.110898,803.695525 C550.207143,806.391344 552.304599,809.686235 553.303388,813.680041 C554.402055,818.672299 553.403267,823.664556 551.305811,827.059292 Z" id="Shape"></path>
        </g>
    </g>
</svg>