<svg width="21" height="17" viewBox="0 0 21 17" fill="none" xmlns="http://www.w3.org/2000/svg">
<g id="icon-build">
<path id="Shape" fill-rule="evenodd" clip-rule="evenodd" d="M9.88937 7.0387C10.4645 6.75115 11.3794 6.75115 11.9545 7.0387L19.7185 11.0645C20.2936 11.352 20.7642 11.0645 20.7642 10.4371L20.7642 5.96691C20.7642 5.33952 20.2936 4.55528 19.7185 4.26772L11.9545 0.21582C11.3794 -0.0717343 10.4645 -0.0717343 9.88937 0.21582L2.1254 4.24158C1.55029 4.52914 1.07975 5.31338 1.07975 5.94077L1.07975 10.4371C1.07975 11.0645 1.55029 11.352 2.1254 11.0645L9.88937 7.0387V7.0387Z" fill="#E0E3EB"/>
<path id="Shape_2" fill-rule="evenodd" clip-rule="evenodd" d="M9.88942 9.77918C10.4645 10.0667 11.3795 10.0667 11.9546 9.77918L19.7447 5.75342C20.3198 5.46586 20.7903 5.75342 20.7903 6.38081V10.8771C20.7903 11.5045 20.3198 12.2888 19.7447 12.5763L11.9807 16.6021C11.4056 16.8896 10.4907 16.8896 9.91556 16.6021L2.12545 12.5763C1.55034 12.2888 1.0798 11.5045 1.0798 10.8771V6.38081C1.0798 5.75342 1.55034 5.46586 2.12545 5.75342L9.88942 9.77918V9.77918Z" fill="#5D616B"/>
</g>
</svg>
