<svg width="19" height="17" viewBox="0 0 19 17" fill="none" xmlns="http://www.w3.org/2000/svg">
<path id="icon-faq" fill-rule="evenodd" clip-rule="evenodd" d="M18.7742 7.65358C18.7742 3.42547 14.5726 0 9.3871 0C4.2016 0 0 3.42547 0 7.65358C0 11.8817 4.2016 15.3072 9.3871 15.3072C10.1202 15.3072 11.2209 15.2405 11.9056 15.111L15.8699 16.4898C16.0084 16.538 16.1411 16.4044 16.0919 16.2662L15.111 13.5083C17.3083 12.1071 18.7742 10.1044 18.7742 7.65358ZM10.1213 11.5768C9.98296 11.7176 9.78795 11.788 9.53544 11.788C9.28376 11.788 9.08958 11.7176 8.95374 11.5768C8.8179 11.4359 8.74957 11.2605 8.74957 11.0509C8.74957 10.8263 8.8204 10.6442 8.96208 10.5051C9.10375 10.3663 9.29459 10.2967 9.53544 10.2967C9.78045 10.2967 9.97379 10.368 10.1155 10.5109C10.2563 10.6538 10.3271 10.8338 10.3271 11.0509C10.3271 11.2605 10.2588 11.4359 10.1213 11.5768ZM10.5396 8.01203L11.2455 7.31742C11.8264 6.71239 12.1172 6.0982 12.1172 5.474C12.1172 4.77355 11.9022 4.22811 11.4722 3.83768C11.0413 3.44682 10.4421 3.25182 9.67378 3.25182C8.92791 3.25182 8.32788 3.44891 7.87536 3.84309C7.42201 4.23769 7.19116 4.77355 7.18366 5.45108H8.57789C8.57789 5.13482 8.6779 4.88397 8.87874 4.69938C9.07958 4.51437 9.34459 4.42229 9.67378 4.42229C10.018 4.42229 10.2788 4.51646 10.4563 4.70563C10.6347 4.89481 10.723 5.16857 10.723 5.52775C10.723 5.7986 10.6463 6.05069 10.4938 6.28362C10.3946 6.43696 10.158 6.69406 9.78545 7.05616C9.4121 7.41784 9.16292 7.74994 9.03708 8.05245C8.91041 8.35455 8.84707 8.7604 8.84707 9.26959H10.1496C10.1571 8.71832 10.2871 8.29913 10.5396 8.01203Z" fill="#5D616B"/>
</svg>
