<svg width="14" height="13" viewBox="0 0 14 13" fill="none" xmlns="http://www.w3.org/2000/svg">
<path fill-rule="evenodd" clip-rule="evenodd" d="M13.7742 5.61525C13.7742 2.51319 10.6916 0 6.8871 0C3.08262 0 0 2.51319 0 5.61525C0 8.71732 3.08262 11.2305 6.8871 11.2305C7.42496 11.2305 8.2325 11.1816 8.73486 11.0866L11.6434 12.0982C11.745 12.1335 11.8424 12.0355 11.8063 11.9341L11.0866 9.91071C12.6987 8.88268 13.7742 7.41338 13.7742 5.61525ZM7.42576 8.49362C7.32427 8.59695 7.18119 8.64861 6.99593 8.64861C6.81128 8.64861 6.66882 8.59695 6.56915 8.49362C6.46949 8.39029 6.41936 8.26158 6.41936 8.10781C6.41936 7.94303 6.47133 7.80943 6.57527 7.70732C6.67921 7.60552 6.81923 7.55447 6.99593 7.55447C7.17569 7.55447 7.31754 7.60674 7.42148 7.7116C7.52481 7.81646 7.57678 7.94853 7.57678 8.10781C7.57678 8.26158 7.52665 8.39029 7.42576 8.49362ZM7.7327 5.87824L8.25058 5.36862C8.67674 4.92473 8.89013 4.47411 8.89013 4.01615C8.89013 3.50224 8.73238 3.10207 8.41688 2.81561C8.10078 2.52886 7.66116 2.38578 7.09743 2.38578C6.5502 2.38578 6.10997 2.53038 5.77797 2.81959C5.44536 3.1091 5.27599 3.50224 5.27049 3.99933H6.2934C6.2934 3.7673 6.36677 3.58326 6.51413 3.44783C6.66148 3.31209 6.85591 3.24453 7.09743 3.24453C7.34995 3.24453 7.54132 3.31362 7.67156 3.45241C7.8024 3.59121 7.86721 3.79206 7.86721 4.05558C7.86721 4.2543 7.81096 4.43925 7.69907 4.61015C7.62631 4.72265 7.45267 4.91128 7.17936 5.17694C6.90544 5.4423 6.72262 5.68595 6.6303 5.9079C6.53736 6.12954 6.49089 6.4273 6.49089 6.80089H7.44655C7.45205 6.39643 7.54744 6.08888 7.7327 5.87824Z" fill="#006FE8"/>
</svg>
