<svg xmlns="http://www.w3.org/2000/svg" viewBox="0 0 99.01 99.01"><defs><style>.bch-1{fill:#6cc64b;fill-rule:evenodd;}</style></defs><title>icon-bch</title><g id="Layer_2" data-name="Layer 2"><g id="Layer_1-2" data-name="Layer 1"><path id="Fill-1-Copy-3" class="bch-1" d="M55.36,38.24c1.56,6.12-8.24,7.86-11.3,8.64L41.3,36.05c3.06-.78,12.43-4.2,14.06,2.19m6.81,16.2c1.72,6.73-10,8.9-13.68,9.84l-3-11.94c3.67-.93,14.93-4.93,16.72,2.1m2.68-21.2c-2.25-6.27-8.34-7-15.5-5.84l-2.27-8.91-5.43,1.38,2.21,8.68c-1.42.36-2.87.76-4.31,1.16L37.32,21,31.9,22.36l2.27,8.9c-1.17.33-2.32.64-3.44.93v0l-7.48,1.9,1.48,5.8s4-1.1,3.93-1a2.89,2.89,0,0,1,3.73,1.58L35,50.58a4.66,4.66,0,0,1,.58-.11l-.57.15L38.6,64.84A2,2,0,0,1,37,67.16c.09,0-3.94,1-3.94,1l.57,6.75,7.06-1.8,3.88-1,2.3,9,5.42-1.38L50,70.87c1.45-.33,2.9-.69,4.34-1.06l2.26,8.88,5.42-1.38-2.28-9c9-2.85,14.78-6.77,13.39-15.53C72,45.72,68,43.47,62.52,43.54c2.74-2.4,4-5.72,2.33-10.3m28.24-7.19a49.5,49.5,0,1,1-67-20.13,49.5,49.5,0,0,1,67,20.13"/></g></g></svg>