<svg viewBox="0 0 50 50" fill="none" xmlns="http://www.w3.org/2000/svg">
<path fill-rule="evenodd" clip-rule="evenodd" d="M24.9999 50C38.8072 50 50 38.8072 50 25.0001C50 11.1929 38.8072 0 24.9999 0C11.1928 0 0 11.1929 0 25.0001C0 38.8072 11.1928 50 24.9999 50ZM35.7207 21.4385C36.2184 18.112 33.6853 16.3237 30.2217 15.1308L31.3452 10.6245L28.602 9.9409L27.5082 14.3285C26.787 14.1487 26.0463 13.9793 25.3102 13.8113L26.412 9.39489L23.6703 8.71145L22.5459 13.216C21.949 13.08 21.363 12.9457 20.7942 12.8043L20.7973 12.7903L17.0141 11.8457L16.2844 14.7754C16.2844 14.7754 18.3197 15.2418 18.2768 15.2705C19.3879 15.5478 19.5887 16.283 19.555 16.8659L18.2752 21.9994C18.3518 22.019 18.451 22.0471 18.5603 22.0909L18.4785 22.0704L18.4782 22.0703C18.4112 22.0535 18.3416 22.0361 18.2705 22.019L16.4765 29.2103C16.3405 29.5478 15.9959 30.0541 15.2193 29.8619C15.2466 29.9018 13.2253 29.3642 13.2253 29.3642L11.8635 32.504L15.4334 33.3938C15.8313 33.4936 16.2245 33.5961 16.6135 33.6975L16.6145 33.6977C16.8745 33.7655 17.1326 33.8328 17.3891 33.8985L16.2538 38.4564L18.9939 39.1399L20.1182 34.6305C20.8449 34.8274 21.5736 35.0165 22.3045 35.1977L21.184 39.6859L23.9272 40.3696L25.0624 35.8203C29.7403 36.7055 33.2579 36.3484 34.7385 32.118C35.9317 28.7117 34.6791 26.747 32.218 25.4657C34.0103 25.0525 35.3604 23.8736 35.7207 21.4385ZM23.6555 22.6455C25.5218 23.1435 29.5924 24.2295 30.3014 21.3894C31.0254 18.4841 27.0689 17.6084 25.1366 17.1807C24.9192 17.1326 24.7275 17.0902 24.571 17.0511L23.2053 22.5277C23.3343 22.5598 23.4858 22.6002 23.6554 22.6455L23.6555 22.6455ZM21.5449 31.4687C23.7834 32.0599 28.6751 33.3516 29.4528 30.2268C30.2497 27.0315 25.505 25.967 23.1901 25.4476C22.9314 25.3896 22.7031 25.3383 22.5163 25.2917L21.0098 31.3299C21.1633 31.368 21.3432 31.4155 21.5445 31.4686L21.5447 31.4687L21.5449 31.4687Z" fill="#F2A900"/>
</svg>
