<?xml version="1.0" encoding="utf-8"?>
<!-- Generator: Adobe Illustrator 21.1.0, SVG Export Plug-In . SVG Version: 6.00 Build 0)  -->
<svg version="1.1" id="Layer_1" xmlns="http://www.w3.org/2000/svg" xmlns:xlink="http://www.w3.org/1999/xlink" x="0px"
	y="0px" viewBox="9 9 46 46" style="enable-background:new 9 9 46 46;" xml:space="preserve">
	<title>REN Logo</title>
	<g fill="#001c3a">
		<polygon
			points="18.3,19.1 21.6,17.2 22.1,18 34.2,11 33.3,10.4 32.4,9.9 32,9.7 12.2,21.1 12.2,21.6 17.9,18.3 	" />
		<polygon
			points="18.3,26.3 27.9,20.8 28.3,21.6 40.4,14.5 39.6,14 38.7,13.5 38.2,13.3 12.2,28.3 12.2,28.8 17.9,25.5 	" />
		<polygon
			points="18.3,29.9 31,22.6 31.4,23.3 43.6,16.3 42.7,15.8 41.8,15.3 41.3,15.1 12.2,31.9 12.2,32.4 17.9,29.1 	" />
		<polygon
			points="18.3,33.5 34.2,24.3 34.6,25.1 46.7,18.1 45.8,17.6 44.9,17.1 44.4,16.9 12.2,35.5 12.2,36 17.9,32.7 	" />
		<polygon
			points="18.3,37.1 37.3,26.1 37.7,26.9 49.8,19.9 48.9,19.4 48,18.9 47.6,18.6 12.2,39.1 12.2,39.6 17.9,36.3 	" />
		<polygon points="51.1,20.7 50.7,20.4 12.2,42.7 12.2,43.2 17.9,39.9 18.3,40.7 37.3,29.7 37.7,30.5 51.8,22.4 51.8,21.3 51.8,21.1 
			" />
		<polygon
			points="14.7,45.3 17.8,43.5 18.3,44.3 37.2,33.4 37.6,34.1 51.8,26 51.8,24.9 51.8,23.9 51.8,23.4 14.2,45.1 	" />
		<polyline
			points="37.2,37 37.6,37.7 51.8,29.6 51.8,28.5 51.8,27.5 51.8,27 17.3,46.9 17.8,47.1 21,45.3 21.5,46 	" />
		<polygon
			points="20.9,48.9 24.1,47.1 24.6,47.8 37.2,40.5 37.6,41.3 51.8,33.2 51.8,32.1 51.8,31.1 51.8,30.6 20.4,48.7 	" />
		<polygon
			points="24,50.7 27.2,48.9 27.7,49.6 37.2,44.1 37.6,44.9 51.8,36.7 51.8,35.7 51.8,34.7 51.8,34.2 23.6,50.5 	" />
		<polygon
			points="26.7,52.3 27.1,52.5 30.3,50.7 30.8,51.4 37.2,47.7 37.6,48.5 51.8,40.3 51.8,39.3 51.8,38.3 51.8,37.8 	" />
		<polygon
			points="30.2,54.3 33.5,52.5 33.9,53.2 37.2,51.3 37.6,52.1 51.8,43.9 51.8,42.9 51.8,41.9 51.8,41.4 29.8,54.1 	" />
		<polygon points="37.3,12.7 36.4,12.2 36.4,12.2 35.6,11.7 35.1,11.5 12.2,24.7 12.2,25.2 17.9,21.9 18.3,22.7 24.8,19 25.2,19.8 	
		" />
	</g>
</svg>