<svg id="Layer_1" xmlns="http://www.w3.org/2000/svg" viewBox="3 3 26 26">
    <title>TUSD Logo</title>
    <circle cx="16" cy="16" r="16" fill="#fff" />
    <path fill="#606161"
        d="M9.1 23.1l.1-.1-.2-.2a9.8 9.8 0 0 1-1.2-12c1.5-2.3 3.6-3.8 6.3-4.7a12 12 0 0 1 9.3.7c1.4.7 2.6 1.6 3.6 2.7l.1-.1c-.5-.9-1.2-1.7-1.9-2.5A13 13 0 0 0 9 5.2c-3.6 2.4-5.5 5.6-5 10a9.8 9.8 0 0 0 5.1 7.9z" />
    <path
        d="M28.1 16.7a9.9 9.9 0 0 0-5.2-7.8l-.1.1.4.5c2 2.3 2.9 4.9 2.4 7.9a10 10 0 0 1-5 7.2A12 12 0 0 1 10 25.7c-1.9-.7-3.5-1.8-4.9-3.2l-.1.1a12.6 12.6 0 0 0 11.8 6.2c2.5-.1 4.7-.9 6.7-2.3 3.3-2.4 5-5.6 4.6-9.8z"
        fill="#56cabd" />
    <path
        d="M17.9 13.1l1.2-.1a3.2 3.2 0 0 0 2.5-2.4h-4.7c-1.2 0-2.4-.1-3.6.1-1.3.2-2.4.8-3 2-.1.3-.1.4.2.4h4v9.2c1.2-.3 2.7-1.5 2.7-3.1v-5.5c.2-.5.3-.6.7-.6z" />
</svg>