<?xml version="1.0" encoding="UTF-8"?>
<svg width="20px" height="20px" viewBox="0 0 103 103" version="1.1" xmlns="http://www.w3.org/2000/svg" xmlns:xlink="http://www.w3.org/1999/xlink">
    <title>WBTC Logo</title>
    <g id="Page-1" stroke="none" stroke-width="1" fill="none" fill-rule="evenodd">
        <g id="wbtc" fill-rule="nonzero">
            <path d="M83.46,21.49 L80.62,24.33 C94.5121254,39.526922 94.5121254,62.813078 80.62,78.01 L83.46,80.85 C98.9231714,64.080587 98.9231714,38.249413 83.46,21.48 L83.46,21.49 Z" id="Shape" fill="#5A5564" opacity="0.75"></path>
            <path d="M24.33,21.73 C39.526922,7.83787464 62.813078,7.83787464 78.01,21.73 L80.85,18.89 C64.080587,3.42682858 38.249413,3.42682858 21.48,18.89 L24.33,21.73 Z" id="Shape" fill="#5A5564" opacity="0.75"></path>
            <path d="M21.73,78 C7.83787464,62.803078 7.83787464,39.516922 21.73,24.32 L18.89,21.48 C3.42682858,38.249413 3.42682858,64.080587 18.89,80.85 L21.73,78 Z" id="Shape" fill="#5A5564" opacity="0.75"></path>
            <path d="M78,80.61 C62.803078,94.5021254 39.516922,94.5021254 24.32,80.61 L21.48,83.45 C38.249413,98.9131714 64.080587,98.9131714 80.85,83.45 L78,80.61 Z" id="Shape" fill="#5A5564" opacity="0.75"></path>
            <path d="M68.92,41.8 C68.36,35.94 63.3,33.97 56.92,33.4 L56.92,25.27 L52,25.27 L52,33.19 C50.7,33.19 49.37,33.19 48,33.24 L48,25.24 L43.06,25.24 L43.06,33.4 C41.99,33.4 40.93,33.4 39.91,33.4 L33.07,33.4 L33.07,38.69 C33.07,38.69 36.73,38.62 36.67,38.69 C38.0521418,38.5175664 39.3185217,39.4817925 39.52,40.86 L39.52,63.15 C39.491726,63.6144672 39.2796337,64.048549 38.9306044,64.3562953 C38.5815752,64.6640415 38.1243518,64.8201089 37.66,64.79 C37.72,64.85 34.06,64.79 34.06,64.79 L33,70.7 L39.44,70.7 L42.98,70.7 L42.98,79 L48,79 L48,70.82 C49.3333333,70.82 50.6666667,70.82 52,70.82 L52,79 L57,79 L57,70.75 C65.33,70.28 71.15,68.18 71.88,60.37 C72.47,54.08 69.51,51.27 64.78,50.13 C67.65,48.67 69.45,46.13 69.03,41.8 L68.92,41.8 Z M62,59.39 C62,65.54 51.47,64.83 48.12,64.83 L48.12,53.93 C51.46,53.94 62,53 62,59.39 Z M59.69,44 C59.69,49.59 50.91,48.94 48.11,48.94 L48.11,39.06 C50.91,39.06 59.69,38.18 59.69,44 Z" id="Shape" fill="#F09242"></path>
            <path d="M51.17,102.35 C22.9095894,102.35 3.46090214e-15,79.4404106 0,51.18 C-3.46090214e-15,22.9195894 22.9095894,0.01 51.17,0.01 C79.4304106,0.01 102.34,22.9195894 102.34,51.18 C102.306937,79.4267042 79.4167042,102.316937 51.17,102.35 Z M51.17,4 C25.1323781,4.00000234 4.02368468,25.1057145 4.02000471,51.1433362 C4.01632474,77.1809578 25.1190514,98.2926358 51.1566723,98.2999981 C77.1942932,98.3073604 98.3089554,77.2076196 98.32,51.17 C98.3034659,25.1333875 77.2066032,4.02757591 51.17,4 Z" id="Shape" fill="#282138"></path>
        </g>
    </g>
</svg>
