<svg width="35" height="10" viewBox="0 0 35 10" fill="none" xmlns="http://www.w3.org/2000/svg">
<path fill-rule="evenodd" clip-rule="evenodd" d="M4.60526 7.5L1.89836 9.04508L2.41533 5.77254L0.225398 3.45492L3.25181 2.97746L4.60526 0L5.95872 2.97746L8.98513 3.45492L6.7952 5.77254L7.31217 9.04508L4.60526 7.5Z" fill="white"/>
<path fill-rule="evenodd" clip-rule="evenodd" d="M17.4998 7.5L14.7929 9.04508L15.3099 5.77254L13.1199 3.45492L16.1463 2.97746L17.4998 0L18.8532 2.97746L21.8797 3.45492L19.6897 5.77254L20.2067 9.04508L17.4998 7.5Z" fill="white"/>
<path fill-rule="evenodd" clip-rule="evenodd" d="M30.3943 7.5L27.6874 9.04508L28.2044 5.77254L26.0145 3.45492L29.0409 2.97746L30.3943 0L31.7478 2.97746L34.7742 3.45492L32.5843 5.77254L33.1012 9.04508L30.3943 7.5Z" fill="white"/>
</svg>