<svg width="57" height="47" viewBox="0 0 57 47" fill="none" xmlns="http://www.w3.org/2000/svg">
<path fill-rule="evenodd" clip-rule="evenodd" d="M24.3521 6.15185C25.288 4.62049 27.512 4.62049 28.4479 6.15185L50.5685 42.3493C51.5459 43.9486 50.3949 46.0008 48.5207 46.0008H4.27933C2.4051 46.0008 1.25414 43.9486 2.23146 42.3493L24.3521 6.15185Z" fill="#C4C5CC"/>
<path fill-rule="evenodd" clip-rule="evenodd" d="M27.9522 3.75146C28.8881 2.2201 31.1121 2.2201 32.048 3.75146L54.1686 39.9489C55.146 41.5482 53.995 43.6004 52.1208 43.6004H7.87943C6.0052 43.6004 4.85424 41.5482 5.83156 39.9489L27.9522 3.75146Z" fill="#9FA0A5"/>
<path fill-rule="evenodd" clip-rule="evenodd" d="M32.0545 20.1723L31.2865 29.7326H28.7137L27.9073 20.1723V13.5996H32.0545V20.1723ZM32.4001 32.4686V36.3996H27.6001V32.4686H32.4001Z" fill="white"/>
</svg>
