<svg height="300px" width="300px" fill="#002247" xmlns="http://www.w3.org/2000/svg"
    xmlns:xlink="http://www.w3.org/1999/xlink" version="1.1" x="0px" y="0px" viewBox="0 0 100 100"
    style="enable-background:new 0 0 100 100;" xml:space="preserve">
    <path
        d="M93,40h-5c-1.9,0-3.5-1.2-4.2-3c-0.2-0.6-0.5-1.2-0.7-1.7c-0.8-1.7-0.5-3.8,0.9-5.1l3.6-3.6c1.8-1.8,1.8-4.6,0-6.4l-7.8-7.8  c-1.8-1.8-4.6-1.8-6.4,0l-3.6,3.6c-1.3,1.3-3.4,1.7-5.1,0.9c-0.6-0.2-1.1-0.5-1.7-0.7c-1.8-0.7-3-2.3-3-4.2V7c0-2.5-2-4.5-4.5-4.5  h-11C42,2.5,40,4.5,40,7v5.1c0,1.9-1.2,3.6-3,4.2c-0.6,0.2-1.1,0.4-1.7,0.7c-1.7,0.8-3.7,0.4-5.1-0.9l-3.6-3.6  c-1.8-1.8-4.6-1.8-6.4,0l-7.8,7.8c-1.8,1.8-1.8,4.6,0,6.4l3.6,3.6c1.3,1.3,1.7,3.4,0.9,5.1c-0.3,0.6-0.5,1.1-0.7,1.7  c-0.7,1.8-2.3,3-4.2,3H7c-2.5,0-4.5,2-4.5,4.5v11C2.5,58,4.5,60,7,60h4.9c1.9,0,3.6,1.2,4.2,3c0.2,0.6,0.5,1.2,0.7,1.8  c0.8,1.7,0.4,3.7-0.9,5.1l-3.5,3.5c-1.8,1.8-1.8,4.6,0,6.4l7.8,7.8c1.8,1.8,4.6,1.8,6.4,0l3.4-3.4c1.3-1.3,3.3-1.7,5-0.9  c0.7,0.3,1.4,0.6,2,0.9c1.7,0.7,2.9,2.3,2.9,4.2V93c0,2.5,2,4.5,4.5,4.5h11c2.5,0,4.5-2,4.5-4.5v-4.9c0-1.8,1.1-3.5,2.9-4.2  c0.7-0.3,1.4-0.5,2-0.9c1.7-0.8,3.7-0.4,5,0.9l3.4,3.4c1.8,1.8,4.6,1.8,6.4,0l7.8-7.8c1.8-1.8,1.8-4.6,0-6.4L84,69.8  c-1.3-1.3-1.7-3.3-0.9-5.1c0.3-0.6,0.5-1.2,0.7-1.8c0.7-1.8,2.3-3,4.2-3H93c2.5,0,4.5-2,4.5-4.5v-11C97.5,42,95.5,40,93,40z   M50,67.5c-9.7,0-17.5-7.8-17.5-17.5S40.3,32.5,50,32.5S67.5,40.3,67.5,50S59.7,67.5,50,67.5z" />
</svg>