<?xml version="1.0" encoding="UTF-8"?>
<svg width="16px" height="16px" viewBox="0 0 16 16" version="1.1" xmlns="http://www.w3.org/2000/svg" xmlns:xlink="http://www.w3.org/1999/xlink">
    <title>Help Icon</title>
    <g id="RenEx_final" stroke="none" stroke-width="1" fill="none" fill-rule="evenodd">
        <g id="5" transform="translate(-698.000000, -430.000000)" fill="#006FE8">
            <g id="section:swap" transform="translate(446.000000, 243.000000)">
                <path d="M262.596387,194.404903 C262.474581,194.540129 262.082581,194.90529 261.43329,195.473548 C261.190194,195.66271 261.014194,195.892387 260.892387,196.135742 C260.757419,196.406194 260.689548,196.704 260.689548,197.028645 L260.689548,197.217806 L259.134452,197.217806 L259.134452,197.028645 C259.134452,196.514839 259.215742,196.067871 259.404903,195.702968 C259.580903,195.338065 260.108129,194.769806 260.987355,193.985548 L261.149677,193.796387 C261.392774,193.499097 261.514581,193.174194 261.514581,192.836129 C261.514581,192.389935 261.379355,192.038452 261.136,191.781419 C260.879226,191.524645 260.514065,191.402839 260.053935,191.402839 C259.472774,191.402839 259.053419,191.578581 258.782968,191.943742 C258.55329,192.25471 258.444903,192.700903 258.444903,193.282581 L256.903226,193.282581 C256.903226,192.281548 257.187355,191.49729 257.782194,190.929548 C258.363613,190.361548 259.148129,190.077419 260.148903,190.077419 C261.027871,190.077419 261.744516,190.307613 262.285419,190.794323 C262.826323,191.267613 263.096774,191.916645 263.096774,192.741677 C263.096774,193.417806 262.921032,193.972129 262.596387,194.404903 M260.66271,199.638452 C260.446452,199.827871 260.203097,199.922323 259.90529,199.922323 C259.607742,199.922323 259.364387,199.814194 259.175226,199.62529 C258.95871,199.435355 258.864258,199.192258 258.864258,198.894452 C258.864258,198.597161 258.95871,198.353806 259.175226,198.164387 C259.364387,197.975226 259.607742,197.880258 259.90529,197.880258 C260.203097,197.880258 260.459871,197.975226 260.66271,198.164387 C260.851871,198.353806 260.96,198.597161 260.96,198.894452 C260.96,199.192258 260.851871,199.44929 260.66271,199.638452 M252,195 C252,199.418323 255.581677,203 260,203 C264.418581,203 268,199.418323 268,195 C268,190.581677 264.418581,187 260,187 C255.581677,187 252,190.581677 252,195 Z" id="icon_help"></path>
            </g>
        </g>
    </g>
</svg>