<svg width="46" height="60" viewBox="0 0 46 60" fill="none" xmlns="http://www.w3.org/2000/svg">
<path opacity="0.4724" fill-rule="evenodd" clip-rule="evenodd" d="M39.7112 14.4585C34.9484 16.7265 35.0618 20.6388 34.7783 24.5511C33.984 19.9584 31.5464 5.0463 23.5517 0C25.196 7.0875 22.2476 17.577 18.0518 20.979C19.4126 16.443 19.4693 13.2678 16.0106 10.4895C16.0106 16.8512 7.05146 21.5443 7.58841 33.9979H7.56006C7.56006 35.9574 7.85717 37.8478 8.40772 39.6271C8.44855 39.8006 8.69576 40.6312 8.83241 40.837C11.5801 47.9637 18.4896 53.0219 26.584 53.0219C35.977 53.0219 43.8322 45.9752 45.3812 37.0251C45.5559 36.0952 45.6086 34.8903 45.591 33.9979C45.2763 26.3156 38.7564 19.9856 39.7112 14.4585" fill="#9FA0A5"/>
<path opacity="0.254767" fill-rule="evenodd" clip-rule="evenodd" d="M32.1512 14.4585C27.3884 16.7265 27.5018 20.6388 27.2183 24.5511C26.4239 19.9584 23.9864 5.0463 15.9917 0C17.636 7.0875 14.6876 17.577 10.4918 20.979C11.8526 16.443 11.9093 13.2678 8.45057 10.4895C8.45057 16.8512 -0.508599 21.5443 0.02835 33.9979H0C0 35.9574 0.297108 37.8478 0.847665 39.6271C0.888489 39.8006 1.1357 40.6312 1.27235 40.837C4.02003 47.9637 10.9295 53.0219 19.024 53.0219C28.4169 53.0219 36.2721 45.9752 37.8212 37.0251C37.9958 36.0952 38.0485 34.8903 38.031 33.9979C37.7163 26.3156 31.1963 19.9856 32.1512 14.4585" fill="#CBCCD0"/>
<mask id="mask0" mask-type="alpha" maskUnits="userSpaceOnUse" x="40" y="41" width="2" height="2">
<path fill-rule="evenodd" clip-rule="evenodd" d="M40.9483 41.8281H41.4444V42.3951H40.9483V41.8281Z" fill="white"/>
</mask>
<g mask="url(#mask0)">
<path fill-rule="evenodd" clip-rule="evenodd" d="M41.231 42.1109C41.2157 42.1943 41.2492 42.0304 41.231 42.1109Z" fill="black"/>
</g>
<mask id="mask1" mask-type="alpha" maskUnits="userSpaceOnUse" x="3" y="5" width="39" height="54">
<path fill-rule="evenodd" clip-rule="evenodd" d="M3.40991 5.08691H41.4439V58.1087H3.40991V5.08691Z" fill="white"/>
</mask>
<g mask="url(#mask1)">
<path fill-rule="evenodd" clip-rule="evenodd" d="M35.5608 19.5454C30.798 21.8134 30.9114 25.7257 30.6279 29.638C29.8336 25.0453 27.396 10.1332 19.4013 5.08691C21.0456 12.1744 18.0972 22.6639 13.9014 26.0659C15.2622 21.5299 15.3189 18.3547 11.8602 15.5764C11.8602 21.9382 2.90107 26.6312 3.43802 39.0848H3.40967C3.40967 41.0444 3.70678 42.9347 4.25733 44.714C4.29816 44.8875 4.54537 45.7181 4.68202 45.924C7.4297 53.0506 14.3392 58.1088 22.4337 58.1088C31.8266 58.1088 39.6818 51.0621 41.2308 42.112C41.4055 41.1821 41.4582 39.9773 41.4406 39.0848C41.1259 31.4025 34.606 25.0725 35.5608 19.5454" fill="#9FA0A5"/>
</g>
<mask id="mask2" mask-type="alpha" maskUnits="userSpaceOnUse" x="41" y="38" width="1" height="2">
<path fill-rule="evenodd" clip-rule="evenodd" d="M41.1578 38.7998H41.4444V39.3668H41.1578V38.7998Z" fill="white"/>
</mask>
<g mask="url(#mask2)">
<path fill-rule="evenodd" clip-rule="evenodd" d="M41.4408 39.0833C41.4408 39.1825 41.4425 38.9841 41.4408 39.0833Z" fill="black"/>
</g>
</svg>
