<svg width="16" height="19" viewBox="0 0 16 19" fill="none" xmlns="http://www.w3.org/2000/svg">
<g id="icon-docs">
<path id="Shape" fill-rule="evenodd" clip-rule="evenodd" d="M1.58195 0C0.717396 0 0 0.717396 0 1.58195V17.1439C0 18.0085 0.717396 18.7259 1.58195 18.7259H13.465C14.3295 18.7259 15.0469 18.0085 15.0469 17.1439V5.11375L9.93318 0H1.58195V0Z" fill="#5D616B"/>
<path id="Shape_2" fill-rule="evenodd" clip-rule="evenodd" d="M11.5152 5.11375H15.047L9.93323 0V3.5318C9.93323 4.39635 10.6506 5.11375 11.5152 5.11375V5.11375Z" fill="#E0E3EB"/>
<path id="Shape_3" fill-rule="evenodd" clip-rule="evenodd" d="M11.9934 8.92142H3.05358C2.70408 8.92142 2.40976 8.62711 2.40976 8.27761C2.40976 7.9281 2.70408 7.63379 3.05358 7.63379H12.0118C12.3613 7.63379 12.6556 7.9281 12.6556 8.27761C12.6556 8.62711 12.3613 8.92142 11.9934 8.92142V8.92142Z" fill="#E0E3EB"/>
<path id="Shape_4" fill-rule="evenodd" clip-rule="evenodd" d="M11.9935 11.9751H9.91484C9.56534 11.9751 9.27103 11.6808 9.27103 11.3313C9.27103 10.9818 9.56534 10.6875 9.91484 10.6875H11.9935C12.343 10.6875 12.6373 10.9818 12.6373 11.3313C12.6373 11.6808 12.3613 11.9751 11.9935 11.9751V11.9751Z" fill="#E0E3EB"/>
<path id="Shape_5" fill-rule="evenodd" clip-rule="evenodd" d="M7.78103 11.9751H3.05358C2.70408 11.9751 2.40976 11.6808 2.40976 11.3313C2.40976 10.9818 2.70408 10.6875 3.05358 10.6875H7.78103C8.13053 10.6875 8.42484 10.9818 8.42484 11.3313C8.42484 11.6808 8.13053 11.9751 7.78103 11.9751V11.9751Z" fill="#E0E3EB"/>
<path id="Shape_6" fill-rule="evenodd" clip-rule="evenodd" d="M11.9934 16.6104H11.1656C10.8161 16.6104 10.5218 16.3161 10.5218 15.9666C10.5218 15.6171 10.8161 15.3228 11.1656 15.3228H11.9934C12.3429 15.3228 12.6372 15.6171 12.6372 15.9666C12.6372 16.3161 12.3613 16.6104 11.9934 16.6104V16.6104Z" fill="#E0E3EB"/>
<path id="Shape_7" fill-rule="evenodd" clip-rule="evenodd" d="M5.18737 16.6104H3.05358C2.70408 16.6104 2.40976 16.3161 2.40976 15.9666C2.40976 15.6171 2.70408 15.3228 3.05358 15.3228H5.20576C5.55526 15.3228 5.84958 15.6171 5.84958 15.9666C5.83118 16.3161 5.55526 16.6104 5.18737 16.6104V16.6104Z" fill="#E0E3EB"/>
</g>
</svg>
