<svg width="13" height="14" viewBox="0 0 13 14" fill="none" xmlns="http://www.w3.org/2000/svg">
<path fill-rule="evenodd" clip-rule="evenodd" d="M1.14252 0C0.518119 0 0 0.502177 0 1.10737V12.0007C0 12.6059 0.518119 13.1081 1.14252 13.1081H9.7247C10.3491 13.1081 10.8672 12.6059 10.8672 12.0007V3.57962L7.17396 0H1.14252Z" fill="#006FE8"/>
<path fill-rule="evenodd" clip-rule="evenodd" d="M8.31647 3.57962H10.8672L7.17395 0V2.47226C7.17395 3.07745 7.69207 3.57962 8.31647 3.57962Z" fill="#31CAFF"/>
<path fill-rule="evenodd" clip-rule="evenodd" d="M8.6619 6.24503H2.20534C1.95292 6.24503 1.74036 6.03901 1.74036 5.79436C1.74036 5.54971 1.95292 5.34369 2.20534 5.34369H8.67518C8.9276 5.34369 9.14016 5.54971 9.14016 5.79436C9.14016 6.03901 8.9276 6.24503 8.6619 6.24503Z" fill="#31CAFF"/>
<path fill-rule="evenodd" clip-rule="evenodd" d="M8.662 8.3825H7.16078C6.90836 8.3825 6.6958 8.17648 6.6958 7.93183C6.6958 7.68718 6.90836 7.48116 7.16078 7.48116H8.662C8.91441 7.48116 9.12698 7.68718 9.12698 7.93183C9.12698 8.17648 8.9277 8.3825 8.662 8.3825Z" fill="#31CAFF"/>
<path fill-rule="evenodd" clip-rule="evenodd" d="M5.6196 8.3825H2.20533C1.95292 8.3825 1.74036 8.17648 1.74036 7.93183C1.74036 7.68718 1.95292 7.48116 2.20533 7.48116H5.6196C5.87202 7.48116 6.08458 7.68718 6.08458 7.93183C6.08458 8.17648 5.87202 8.3825 5.6196 8.3825Z" fill="#31CAFF"/>
<path fill-rule="evenodd" clip-rule="evenodd" d="M8.66193 11.6274H8.0641C7.81168 11.6274 7.59912 11.4214 7.59912 11.1767C7.59912 10.932 7.81168 10.726 8.0641 10.726H8.66193C8.91435 10.726 9.12691 10.932 9.12691 11.1767C9.12691 11.4214 8.92763 11.6274 8.66193 11.6274Z" fill="#31CAFF"/>
<path fill-rule="evenodd" clip-rule="evenodd" d="M3.74641 11.6274H2.20534C1.95292 11.6274 1.74036 11.4214 1.74036 11.1767C1.74036 10.932 1.95292 10.726 2.20534 10.726H3.75969C4.01211 10.726 4.22467 10.932 4.22467 11.1767C4.21139 11.4214 4.01211 11.6274 3.74641 11.6274Z" fill="#31CAFF"/>
</svg>
