<svg width="15" height="12" viewBox="0 0 15 12" fill="none" xmlns="http://www.w3.org/2000/svg">
<path fill-rule="evenodd" clip-rule="evenodd" d="M6.61727 4.60305C7.00242 4.41565 7.61515 4.41565 8.00029 4.60305L13.1998 7.2267C13.5849 7.41411 13.9 7.2267 13.9 6.81782L13.9 3.90455C13.9 3.49567 13.5849 2.98457 13.1998 2.79717L8.00029 0.156479C7.61515 -0.0309248 7.00242 -0.0309248 6.61727 0.156479L1.41781 2.78013C1.03266 2.96753 0.717542 3.47863 0.717542 3.88751L0.717542 6.81782C0.717542 7.2267 1.03266 7.41411 1.41781 7.2267L6.61727 4.60305Z" fill="#31CAFF"/>
<path fill-rule="evenodd" clip-rule="evenodd" d="M6.61722 6.4288C7.00237 6.6162 7.6151 6.6162 8.00025 6.4288L13.2172 3.80515C13.6024 3.61774 13.9175 3.80515 13.9175 4.21403V7.14434C13.9175 7.55322 13.6024 8.06432 13.2172 8.25172L8.01775 10.8754C7.63261 11.0628 7.01988 11.0628 6.63473 10.8754L1.41776 8.25172C1.03261 8.06432 0.717494 7.55322 0.717494 7.14434V4.21403C0.717494 3.80515 1.03261 3.61774 1.41776 3.80515L6.61722 6.4288Z" fill="#006FE8"/>
</svg>
