<svg width="16" height="14" viewBox="0 0 16 14" fill="none" xmlns="http://www.w3.org/2000/svg">
<g id="icon-tutorial">
<path id="Path" opacity="0.509766" d="M1.42208 0C0.636684 0 0 0.636684 0 1.42208V12.2922C0 13.0776 0.636684 13.7143 1.42208 13.7143H3.42857V0H1.42208Z" fill="#9195A0"/>
<path id="Shape" fill-rule="evenodd" clip-rule="evenodd" d="M3.42859 0V13.7143H15C15.5523 13.7143 16 13.2666 16 12.7143V0.999999C16 0.447715 15.5523 0 15 0H3.42859ZM7.84433 11.7921H5.97407C5.6585 11.7921 5.40264 11.5363 5.40264 11.2207C5.40264 10.9051 5.6585 10.6493 5.97407 10.6493H7.84433C8.15989 10.6493 8.41575 10.9051 8.41575 11.2207C8.41575 11.5363 8.15989 11.7921 7.84433 11.7921ZM5.97407 9.6981H9.7143C10.0299 9.6981 10.2857 9.44224 10.2857 9.12667C10.2857 8.8111 10.0299 8.55525 9.7143 8.55525H5.97407C5.6585 8.55525 5.40264 8.8111 5.40264 9.12667C5.40264 9.44224 5.6585 9.6981 5.97407 9.6981Z" fill="#E0E3EB"/>
<rect id="Rectangle" x="4.57141" y="10.2856" width="4.57143" height="1.71429" fill="#E0E3EB"/>
<rect id="Rectangle Copy 2" x="4.57141" y="8" width="7" height="1.71429" fill="#E0E3EB"/>
<path id="Line 2 Copy" d="M5.40265 11.4122H8.00003" stroke="#1C1F26" stroke-linecap="round"/>
<path id="Line 2" d="M5.40265 9.12653H10.2857" stroke="#1C1F26" stroke-linecap="round"/>
</g>
</svg>
