<?xml version="1.0" encoding="UTF-8"?>
<svg width="21px" height="11px" viewBox="0 0 21 11" version="1.1" xmlns="http://www.w3.org/2000/svg" xmlns:xlink="http://www.w3.org/1999/xlink">
    <!-- Generator: Sketch 50.2 (55047) - http://www.bohemiancoding.com/sketch -->
    <title>union-jack</title>
    <desc>Created with Sketch.</desc>
    <defs></defs>
    <g id="Page-1" stroke="none" stroke-width="1" fill="none" fill-rule="evenodd">
        <g id="union-jack">
            <polygon id="Fill-1" fill="#FFFFFF" points="0 11 20.7878788 11 20.7878788 0 0 0"></polygon>
            <polygon id="Fill-2" fill="#00247D" points="2.32431818 11 8.66165152 11 8.66165152 7.64657143"></polygon>
            <polygon id="Fill-3" fill="#00247D" points="12.1261636 11 18.4641333 11 12.1261636 7.64657143"></polygon>
            <polygon id="Fill-4" fill="#00247D" points="0 7.33316122 0 9.76999796 4.60515152 7.33316122"></polygon>
            <polygon id="Fill-5" fill="#CF142B" points="6.92942727 7.33316122 6.36363636e-05 10.9999776 1.54960909 10.9999776 8.47854848 7.33316122"></polygon>
            <polygon id="Fill-6" fill="#CF142B" points="13.8588545 7.33316122 20.7880061 10.9999776 20.7880061 10.1801408 15.4081879 7.33316122"></polygon>
            <polygon id="Fill-7" fill="#00247D" points="16.1829818 7.33316122 20.7879212 9.76999796 20.7879212 7.33316122"></polygon>
            <polygon id="Fill-8" fill="#00247D" points="0 3.66652449 4.60515152 3.66652449 0 1.22991224"></polygon>
            <polygon id="Fill-9" fill="#00247D" points="16.1829818 3.66652449 20.7879212 3.66652449 20.7879212 1.22991224"></polygon>
            <polygon id="Fill-10" fill="#CF142B" points="0 8.97959184e-05 0 0.819926531 5.37960606 3.66645714 6.92936364 3.66645714 0.000424242424 8.97959184e-05"></polygon>
            <polygon id="Fill-11" fill="#00247D" points="2.3247 8.97959184e-05 8.66160909 3.35329388 8.66160909 8.97959184e-05"></polygon>
            <polygon id="Fill-12" fill="#CF142B" points="9.35454545 8.97959184e-05 9.35454545 4.39986531 0 4.39986531 0 6.59986531 9.35454545 6.59986531 9.35454545 11.0000898 11.4331212 11.0000898 11.4331212 6.59964082 20.7878788 6.59964082 20.7878788 4.39964082 11.4331212 4.39964082 11.4331212 8.97959184e-05"></polygon>
            <polygon id="Fill-13" fill="#00247D" points="12.1261636 8.97959184e-05 12.1261636 3.35329388 18.4637091 8.97959184e-05"></polygon>
            <polygon id="Fill-14" fill="#CF142B" points="19.2379091 8.97959184e-05 12.3089697 3.66645714 13.8589394 3.66645714 20.7874545 8.97959184e-05"></polygon>
        </g>
    </g>
</svg>